<svg width="101" height="101" viewBox="0 0 101 101" fill="none" xmlns="http://www.w3.org/2000/svg">
<path d="M86.7969 11.0469H14.2031C12.4573 11.0469 11.0469 12.4573 11.0469 14.2031V86.7969C11.0469 88.5427 12.4573 89.9531 14.2031 89.9531H86.7969C88.5427 89.9531 89.9531 88.5427 89.9531 86.7969V14.2031C89.9531 12.4573 88.5427 11.0469 86.7969 11.0469ZM43.4182 75.4541H38.4076C38.1906 75.4541 37.9638 75.3456 37.8257 75.1681L34.3242 70.8775L30.8228 75.1681C30.7545 75.2575 30.6664 75.3298 30.5654 75.3795C30.4644 75.4291 30.3533 75.4546 30.2408 75.4541H25.2303C24.5793 75.4541 24.2242 74.6749 24.6582 74.162L30.8425 66.587L24.8062 59.1994C24.382 58.6865 24.7371 57.9073 25.3881 57.9073H30.4085C30.6255 57.9073 30.8523 58.0158 30.9904 58.1934L34.3439 62.2965L37.6975 58.1934C37.8454 58.006 38.0525 57.9073 38.2794 57.9073H43.2899C43.9409 57.9073 44.296 58.6865 43.8719 59.1994L37.8257 66.5771L44.01 74.1521C44.4242 74.6749 44.0691 75.4541 43.4182 75.4541ZM44.1875 37.7764C44.1875 37.9934 44.0494 38.1709 43.8719 38.1709H37.0859V44.947C37.0859 45.1344 36.9084 45.2725 36.6914 45.2725H31.957C31.74 45.2725 31.5625 45.1344 31.5625 44.9568V38.1709H24.7766C24.599 38.1709 24.4609 37.9934 24.4609 37.7764V33.042C24.4609 32.825 24.599 32.6475 24.7766 32.6475H31.5625V25.8615C31.5625 25.684 31.74 25.5459 31.957 25.5459H36.6914C36.9084 25.5459 37.0859 25.684 37.0859 25.8615V32.6475H43.862C44.0494 32.6475 44.1875 32.825 44.1875 33.042V37.7764ZM76.5391 74.1719C76.5391 74.3889 76.401 74.5664 76.2234 74.5664H57.1281C56.9506 74.5664 56.8125 74.3889 56.8125 74.1719V69.4375C56.8125 69.2205 56.9506 69.043 57.1281 69.043H76.2136C76.401 69.043 76.5391 69.2205 76.5391 69.4375V74.1719ZM76.5391 63.9141C76.5391 64.1311 76.401 64.3086 76.2234 64.3086H57.1281C56.9506 64.3086 56.8125 64.1311 56.8125 63.9141V59.1797C56.8125 58.9627 56.9506 58.7852 57.1281 58.7852H76.2136C76.401 58.7852 76.5391 58.9627 76.5391 59.1797V63.9141ZM76.5391 37.7764C76.5391 37.9934 76.401 38.1709 76.2234 38.1709H57.1281C56.9506 38.1709 56.8125 37.9934 56.8125 37.7764V33.042C56.8125 32.825 56.9506 32.6475 57.1281 32.6475H76.2136C76.401 32.6475 76.5391 32.825 76.5391 33.042V37.7764Z" fill="#004C41"/>
</svg>
