<svg width="151" height="151" viewBox="0 0 151 151" fill="none" xmlns="http://www.w3.org/2000/svg">
<path d="M141.626 77.2309C141.626 72.3559 141.189 67.6684 140.376 63.1684H75.6265V89.7621H112.626C111.033 98.3559 106.189 105.637 98.9077 110.512V127.762H121.126C134.126 115.793 141.626 98.1683 141.626 77.2309Z" fill="#4285F4"/>
<path d="M75.6265 144.418C94.189 144.418 109.751 138.262 121.126 127.762L98.9077 110.512C92.7515 114.637 84.8765 117.075 75.6265 117.075C57.7202 117.075 42.564 104.981 37.1577 88.7309H14.189V106.543C25.5015 129.012 48.7515 144.418 75.6265 144.418Z" fill="#34A853"/>
<path d="M37.1577 88.7309C35.7827 84.6059 35.0015 80.1996 35.0015 75.6684C35.0015 71.1371 35.7827 66.7308 37.1577 62.6058V44.7934H14.189C9.37646 54.3737 6.87222 64.9472 6.87647 75.6684C6.87647 86.7621 9.53272 97.2621 14.189 106.543L37.1577 88.7309Z" fill="#FBBC05"/>
<path d="M75.6265 34.2621C85.7202 34.2621 94.7827 37.7308 101.908 44.5434L121.626 24.8246C109.72 13.7309 94.1577 6.91835 75.6265 6.91835C48.7515 6.91835 25.5015 22.3246 14.189 44.7933L37.1577 62.6058C42.564 46.3558 57.7202 34.2621 75.6265 34.2621Z" fill="#EA4335"/>
</svg>
