<svg width="182" height="182" viewBox="0 0 182 182" fill="none" xmlns="http://www.w3.org/2000/svg">
<path d="M69.352 10.984C69.352 30.0371 52.325 44.2203 56.2707 71.2715C51.8274 73.582 47.4907 75.9281 43.3672 78.4164C44.8957 83.2152 53.0715 105.468 72.8 114.816C75.8215 111.759 79.0207 108.773 82.2911 105.859C77.9188 86.6633 79.1274 68.3566 85.7391 50.0144C81.5801 30.5703 87.943 10.984 87.943 10.984H69.352ZM143.432 10.984C142.01 19.6574 136.287 26.9801 127.862 33.6273C129.711 39.6348 129.639 46.1043 126.725 52.1828L114.959 43.8648L107.423 48.5215C107.423 48.5215 107.743 59.8609 118.727 75.2527C118.478 61.6383 132.768 49.8367 146.702 49.8367C155.02 40.6301 161.952 30.748 166.466 19.6574V10.984H143.432ZM119.189 33.2825C115.741 33.3678 111.653 36.0445 109.84 41.1277L118.158 38.3551L123.881 44.5758C126.618 36.8266 123.348 33.1794 119.189 33.2825ZM102.482 41.1277C97.5051 40.95 92.2442 47.3484 89.5071 57.6926C82.0778 79.0207 89.1161 101.877 89.1161 101.877L92.5285 91.9953C92.5285 91.9953 95.9055 112.612 112.079 122.459C112.079 122.459 101.877 120.859 93.2395 113.714C89.5071 115.954 83.4641 120.717 77.5633 126.298C69.7786 123.099 40.0614 108.88 36.72 75.8926L43.4739 71.8402C16.1419 65.3707 22.2559 130.848 54.7422 157.473C75.786 173.469 113.11 169.203 133.479 154.984L124.663 169.203C124.663 169.203 157.011 159.25 167.461 113.252C169.523 104.401 169.807 96.0832 169.097 87.4098L173.86 92.1375C173.256 69.9918 159.25 53.6758 143.254 56.8394C134.865 58.0836 127.045 64.8375 124.45 74.7551C129.959 69.5297 134.118 71.3781 134.972 74.8262C135.931 78.5586 132.981 84.1395 123.632 84.5305C124.059 89.8625 125.872 95.7277 129.497 101.877C109.733 84.1395 100.064 52.9648 102.624 45.3578L106.498 42.834C105.219 41.732 103.868 41.1633 102.482 41.1277ZM149.404 70.0629C152.212 69.9918 155.695 71.698 159.037 76.4258C162.591 81.4734 159.57 84.8504 153.42 83.9973C143.681 82.6465 142.081 76.5324 144.427 72.8711C145.458 71.2715 147.235 70.134 149.404 70.0629ZM149.013 74.2574C147.839 74.2574 146.88 75.2172 146.88 76.3902C146.88 77.5633 147.839 78.523 149.013 78.523C150.186 78.523 151.145 77.5633 151.145 76.3902C151.145 75.2172 150.186 74.2574 149.013 74.2574ZM130.173 74.6129C129 74.6129 128.04 75.5726 128.04 76.7457C128.04 77.9187 129 78.8785 130.173 78.8785C131.346 78.8785 132.306 77.9187 132.306 76.7457C132.306 75.5726 131.346 74.6129 130.173 74.6129ZM138.633 83.0019C141.441 83.0019 144.178 84.2816 143.716 86.9477C143.432 88.4406 141.05 89.3293 138.597 89.507C136.145 89.6848 133.656 89.116 133.194 87.7652C132.128 84.6371 135.434 83.0019 138.633 83.0019ZM19.3909 96.5453C14.6062 101.486 10.7459 106.818 8.13672 112.719V170.98H42.6563C43.1184 166.359 44.0426 161.738 45.2868 157.473C26.4043 140.659 18.7048 115.847 19.3909 96.5453Z" fill="#003B33"/>
</svg>
