<svg width="50" height="50" viewBox="0 0 50 50" fill="none" xmlns="http://www.w3.org/2000/svg">
<path d="M44.071 0.561727C44.071 0.561727 5.95537 0.550008 5.96631 0.561727C2.45303 0.561727 0.478027 2.37813 0.478027 6.08829V44.343C0.478027 47.8141 2.25381 49.6313 5.76396 49.6313H44.1804C47.6905 49.6313 49.4687 47.9047 49.4687 44.343V6.08829C49.4694 2.46798 47.6913 0.561727 44.071 0.561727ZM24.0226 18.2609C24.0226 19.4609 22.9296 20.7461 21.5108 20.7461V41.0078C21.5108 43.8844 17.5905 43.8844 17.5905 41.0078V20.7461C16.2101 20.7461 15.0077 19.6828 15.0077 18.0899V6.93907C15.0077 5.96876 16.4101 5.93126 16.4101 6.97735V15.2195H17.5843V6.90079C17.5843 6.00938 18.9351 5.95235 18.9351 6.93907V15.2195H20.1483V6.91251C20.1483 5.98048 21.4593 5.94298 21.4593 6.94923V15.2195H22.653V6.91251C22.653 5.99063 24.0226 5.95391 24.0226 6.94923V18.2609ZM34.4804 40.9984C34.4804 43.8117 30.5522 43.7695 30.5522 40.9984V28.5125H28.4608V9.53048C28.4608 5.11173 34.4812 5.11173 34.4812 9.53048V40.9984H34.4804Z" fill="#EEE6F6"/>
</svg>
